<?xml version="1.0" encoding="utf-8"?>
<!-- Generator: Adobe Illustrator 25.1.0, SVG Export Plug-In . SVG Version: 6.00 Build 0)  -->
<svg version="1.1" id="Laag_1" xmlns="http://www.w3.org/2000/svg" xmlns:xlink="http://www.w3.org/1999/xlink" x="0px" y="0px"
	 viewBox="0 0 1387.2 1387.2" style="enable-background:new 0 0 1387.2 1387.2;" xml:space="preserve">
<style type="text/css">
	.st0{fill:#16136F;}
	.st1{fill:#FFFFFF;}
	.st2{fill:#3636A2;}
</style>
<g>
	<g>
		<path id="Path_572_1_" class="st2" d="M703.4,778.7H511.2V338.3l192.3,220.2L703.4,778.7L703.4,778.7z"/>
		<path id="Path_573_1_" class="st0" d="M703.4,338.3h192.3v440.4L703.4,558.5V338.3z"/>
	</g>
	<path id="Path_574_1_" class="st0" d="M250.8,1019.8v-93.7h28.7v10.4c3.9-4.1,8.5-7.3,13.7-9.6c5.8-2.5,12-3.8,18.3-3.7
		c6.7-0.1,13.4,1.5,19.3,4.7c5.5,3,10.1,7.6,13.1,13.1c3.3,6,4.9,12.7,4.7,19.6v59.3H320v-53.4c0.3-5.7-1.6-11.4-5.3-15.7
		c-3.9-3.9-9.2-5.9-14.7-5.6c-3.8-0.1-7.5,0.8-10.9,2.5c-2.9,1.6-5.4,4-7.1,6.9c-1.7,3-2.6,6.4-2.5,9.8v55.4H250.8z"/>
	<path id="Path_575_1_" class="st0" d="M451.3,1022.7c-9.9,0.2-19.7-2-28.5-6.3c-8.1-4-15.1-10-20.1-17.6c-9.9-15.8-9.9-35.9,0-51.7
		c5-7.5,11.9-13.6,20.1-17.6c18.1-8.5,39-8.5,57,0c8.1,4,15.1,10,20.1,17.6c9.9,15.8,9.9,35.9,0,51.7c-5,7.5-11.9,13.6-20.1,17.6
		C470.9,1020.7,461.2,1022.9,451.3,1022.7 M451.3,998.8c4.6,0.1,9.2-1.1,13.2-3.3c3.9-2.1,7.1-5.3,9.4-9.1c4.6-8.3,4.6-18.5,0-26.8
		c-2.3-3.8-5.5-7-9.4-9.1c-8.3-4.4-18.2-4.4-26.5,0c-3.9,2.1-7.1,5.3-9.4,9.1c-4.7,8.3-4.7,18.5,0,26.8c2.3,3.8,5.5,7,9.4,9.1
		C442.1,997.7,446.7,998.8,451.3,998.8"/>
	<path id="Path_576_1_" class="st0" d="M587.8,1022.7c-8.3,0.5-16.4-2.8-22.1-8.9c-5.6-7-8.4-15.9-7.9-24.9v-41.5h-12.9v-21.3h12.9
		v-35h28.5v35h21v21.3h-21v39.4c-0.2,2.8,0.6,5.7,2.1,8.1c1.5,1.9,3.8,2.9,6.2,2.7c3.1,0,6.1-1.1,8.6-2.9l7.2,22.5
		c-3.4,1.8-7.1,3.1-10.8,4C595.7,1022.2,591.7,1022.7,587.8,1022.7"/>
	<path id="Path_577_1_" class="st0" d="M672.6,906.6c-6,0.1-11.6-3.1-14.7-8.3c-1.5-2.5-2.3-5.5-2.3-8.4s0.8-5.8,2.3-8.3
		s3.6-4.5,6.1-6c5.3-3,11.7-3,17,0c2.5,1.5,4.6,3.5,6.2,6c1.6,2.5,2.4,5.4,2.3,8.3c0,3-0.8,5.9-2.3,8.4s-3.6,4.6-6.2,6.1
		C678.5,905.9,675.5,906.6,672.6,906.6 M658.3,926.1h28.6v93.7h-28.6V926.1z"/>
	<path id="Path_578_1_" class="st0" d="M748.1,1019.8v-72.4h-12.9v-21.3h12.9v-23.2c-0.2-7.9,1.2-15.7,4.2-23
		c4.9-12.7,17.4-20.8,30.9-20.2c4.5,0,9.1,0.7,13.4,2.1c4.1,1.2,8,3.1,11.4,5.7l-9.9,19.7c-3-1.8-6.4-2.7-9.9-2.6
		c-2.7-0.2-5.3,0.7-7.4,2.4c-1.8,1.8-3,4.2-3.4,6.7c-0.6,3.3-0.9,6.6-0.9,9.9v22.7H799v21.3h-22.5v72.4L748.1,1019.8z"/>
	<path id="Path_579_1_" class="st0" d="M861.5,906.6c-6,0.1-11.6-3.1-14.7-8.3c-1.5-2.5-2.3-5.5-2.3-8.4s0.8-5.8,2.3-8.3
		s3.6-4.5,6.1-6c5.3-3,11.7-3,17,0c2.5,1.5,4.6,3.5,6.2,6c1.6,2.5,2.4,5.4,2.3,8.3c0,3-0.8,5.9-2.3,8.4s-3.6,4.6-6.2,6.1
		C867.4,905.9,864.4,906.6,861.5,906.6 M847.2,926.1h28.6v93.7h-28.6V926.1z"/>
	<path id="Path_580_1_" class="st0" d="M977.4,1022.7c-13.9,0.1-27.3-5.1-37.6-14.5c-4.8-4.5-8.7-9.8-11.5-15.8
		c-2.8-6.1-4.3-12.7-4.2-19.4c0-6.5,1.3-13,4-18.9c2.7-6,6.5-11.4,11.2-16c4.9-4.7,10.6-8.4,16.9-11c6.7-2.7,13.8-4,21-4
		c6,0,12.1,0.9,17.8,2.6c5,1.4,9.6,3.6,13.7,6.7l-9.8,18.8c-5.1-3.5-11.1-5.2-17.3-5c-5.3-0.2-10.5,1.2-15,3.8
		c-4,2.4-7.2,5.8-9.3,10c-2.1,4-3.1,8.4-3.1,12.9c-0.1,4.7,1.1,9.4,3.4,13.5c2.3,4.1,5.6,7.4,9.7,9.7c4.5,2.4,9.5,3.7,14.6,3.6
		c3.3,0,6.5-0.5,9.6-1.4c2.7-0.8,5.2-2,7.5-3.6l9.8,18.9c-4.2,2.9-8.8,5.1-13.7,6.6C989.4,1021.9,983.5,1022.8,977.4,1022.7"/>
	<path id="Path_581_1_" class="st0" d="M1094.1,1022.7c-8.4,0.1-16.7-2.1-23.9-6.4c-7.2-4.3-13.1-10.4-17.1-17.8
		c-8.3-16-8.4-35-0.2-51c3.9-7.3,9.7-13.4,16.8-17.8c7.3-4.4,15.8-6.7,24.4-6.5c6.5-0.1,13,1.2,19,3.8c5.6,2.3,10.5,5.9,14.4,10.6
		v-11.4h28.6v93.7h-28.6v-12.4c-4.2,4.8-9.3,8.6-15,11.3C1106.7,1021.4,1100.4,1022.8,1094.1,1022.7 M1102.5,998.9
		c4.6,0.1,9.2-1.1,13.2-3.3c3.8-2.2,6.9-5.3,9.1-9.2c4.4-8.4,4.4-18.4,0-26.8c-2.1-3.8-5.3-7-9-9.2c-8.2-4.4-18.1-4.4-26.3,0
		c-3.8,2.2-7,5.4-9.1,9.2c-2.3,4.1-3.4,8.7-3.4,13.4c-0.1,4.6,1.1,9.2,3.4,13.3c2.2,3.8,5.3,7,9.1,9.3
		C1093.4,997.8,1098,998.9,1102.5,998.9"/>
</g>
</svg>
